<svg width="300" height="51" viewBox="0 0 300 51" fill="none" xmlns="http://www.w3.org/2000/svg">
<path d="M37.6857 0.867302C34.8816 2.57826 34.8816 2.72084 35.0242 26.104L35.1668 47.4435L36.3074 48.6792C38.8263 51.3882 43.3889 51.3882 45.9078 48.6792C47.0009 47.491 47.0485 47.1583 47.2861 39.0788C47.4287 33.5182 47.7138 30.2863 48.1416 29.621C49.2822 27.5773 52.8942 27.5773 54.0349 29.621C54.4626 30.2863 54.7478 33.5182 54.8904 39.1263L55.128 47.6336L56.6489 48.9643C59.643 51.6734 64.5858 51.103 66.5344 47.8712C67.3899 46.4929 67.485 45.4949 67.485 36.1321C67.4374 24.6782 66.9146 21.7315 64.3957 18.8324C61.0213 14.9827 53.2745 15.6006 50.3278 19.9255C49.71 20.8285 49.0446 22.6345 48.902 23.8702C48.7119 25.3436 48.3792 26.1515 47.9515 26.1515C47.4287 26.1515 47.2861 24.2029 47.2861 15.458C47.2861 3.95654 47.0009 2.2931 44.8622 0.772247C43.3889 -0.225815 39.3491 -0.225815 37.6857 0.867302Z" fill="#204012"/>
<path d="M254.264 1.05843C251.888 2.91198 251.65 4.29025 251.603 15.7917C251.603 25.0594 251.508 26.1525 250.985 24.4891C249.607 20.1642 247.468 17.6453 244.331 16.6472C241.004 15.6016 235.681 16.8848 233.495 19.3562C230.786 22.3029 229.027 29.9072 229.598 36.1332C230.453 45.8761 234.16 50.5337 241.194 50.5813C246.28 50.6288 249.416 48.0148 250.034 43.2146C250.462 39.9353 251.46 40.1729 251.793 43.6424C252.268 48.9654 254.549 51.1991 258.922 50.7239C261.821 50.3436 263.342 49.3931 264.34 47.3019C265.005 45.9237 265.053 45.1632 264.577 41.7413C264.245 39.365 264.007 31.2379 264.007 21.2573C264.007 3.52982 263.865 2.38918 261.583 0.773273C259.92 -0.367367 255.928 -0.224789 254.264 1.05843ZM250.937 29.717C253.314 32.0934 251.983 35.7529 248.513 36.4183C246.09 36.8461 242.715 36.3708 241.67 35.4202C240.386 34.2321 240.054 32.1884 240.909 30.4775C241.765 28.814 242.287 28.6715 246.565 28.5764C249.416 28.5289 249.939 28.6715 250.937 29.717Z" fill="#204012"/>
<path d="M12.8289 16.3139C3.79885 18.6903 -1.28651 26.8649 0.28187 36.5603C1.61262 45.1151 7.2683 50.2005 16.1558 50.7233C22.4293 51.151 27.2295 49.6302 30.0811 46.3508C31.8396 44.3547 32.3149 42.9289 31.8871 40.505C31.5069 38.0812 30.1762 36.5128 27.8949 35.6573C26.1839 35.087 25.5186 35.087 23.1897 35.6098C19.8153 36.4177 15.3003 36.7979 13.7319 36.4177C10.8328 35.6573 9.64463 31.9977 11.6883 30.1442C12.4962 29.3838 13.3992 29.2412 16.8212 29.2412C19.0549 29.2887 22.3343 29.4788 24.0452 29.6689C26.7067 30.0016 27.4196 29.9541 28.7028 29.1937C31.8871 27.2926 32.5525 22.2072 29.891 19.4507C29.1781 18.6903 27.4196 17.6447 25.9938 17.1219C22.7145 15.8862 16.0607 15.506 12.8289 16.3139Z" fill="#204012"/>
<path d="M80.5546 17.0746C76.6574 18.3103 74.8989 19.3559 73.9008 21.0669C72.7602 22.9204 72.7127 24.774 73.7107 26.9127C74.8514 29.3365 76.7524 30.1445 80.2694 29.7643C89.0143 28.8137 89.4421 28.8613 90.4877 29.9068C91.7709 31.1901 91.8659 33.5189 90.6778 33.0436C86.2578 31.3802 78.1307 31.4752 74.8989 33.2812C71.9047 34.9447 70.9067 36.5131 70.669 39.8874C70.4314 43.1193 71.0968 45.5431 72.8077 47.5868C74.6613 49.7255 76.895 50.5334 81.2675 50.5334C86.8281 50.581 89.252 49.0126 89.9173 45.0203C90.2976 42.644 91.2956 42.7866 91.6283 45.258C92.3412 50.676 98.3771 52.6246 102.274 48.7274L103.843 47.159V38.1765C103.843 28.481 103.415 25.772 101.276 22.16C99.7554 19.4985 97.9018 18.2153 94.2423 17.0746C90.5352 15.8865 84.1666 15.8865 80.5546 17.0746ZM89.1094 34.8496C91.7709 36.1804 89.7748 38.5092 85.9251 38.5092C82.9309 38.5092 81.5051 37.7963 81.5051 36.3705C81.5051 35.5625 81.8378 34.9922 82.5982 34.707C84.1666 34.0892 87.7311 34.1367 89.1094 34.8496Z" fill="#204012"/>
<path d="M110.972 17.0264C107.836 18.5472 107.646 19.5453 107.646 33.7558C107.646 45.5424 107.693 46.4454 108.596 47.9187C110.355 50.8179 114.917 51.6733 117.911 49.6772C120.098 48.2514 120.478 46.4454 120.478 36.8925C120.478 28.3377 120.525 28.1001 121.523 27.3872C123.044 26.3416 123.947 26.4367 125.278 27.8625C127.084 29.8111 128.938 30.5715 131.266 30.2863C137.73 29.5734 139.156 19.9255 133.31 16.8838C129.08 14.6976 123.092 17.8343 122.094 22.7296C121.666 24.7732 120.478 24.7257 120.478 22.6821C120.478 19.2126 117.531 16.1709 114.062 16.1709C113.301 16.1709 111.876 16.5511 110.972 17.0264Z" fill="#204012"/>
<path d="M142.862 17.0267C141.959 17.4545 140.771 18.4525 140.248 19.1654C139.298 20.4011 139.25 21.3041 139.108 31.2372C138.87 44.8774 139.108 46.7785 141.104 48.7746C143.86 51.5311 148.375 51.341 150.609 48.3468C151.512 47.1111 151.607 46.2081 151.845 38.3187C152.083 28.8609 152.32 28.0529 154.744 28.0529C157.215 28.0529 157.548 29.2411 157.548 37.9385C157.548 47.3013 157.928 48.5845 161.255 50.0103C163.632 51.0559 165.913 50.9608 167.861 49.6776C169.953 48.2993 170.38 46.3507 170.38 37.9385C170.38 29.2886 170.713 28.0529 173.137 28.0529C176.084 28.1005 176.559 29.6688 176.559 39.5544C176.559 46.826 176.606 47.0161 177.747 48.4419C181.026 52.2916 187.585 51.0083 188.916 46.2081C189.534 43.9744 189.534 32.5204 188.916 26.7222C188.393 21.6368 187.205 18.9278 184.971 17.5971C181.834 15.6485 177.272 15.8861 174.42 18.1674C172.852 19.4031 171.378 22.4923 171.331 24.5835C171.331 27.2925 170.143 26.3895 169.477 23.2052C169.002 20.8764 168.527 19.8783 167.101 18.5001C164.44 15.791 160.257 15.4584 156.74 17.5971C154.649 18.8328 153.698 20.4962 153.318 23.3953C152.938 26.6747 151.845 27.0549 151.845 23.9181C151.797 17.9297 147.52 14.6029 142.862 17.0267Z" fill="#204012"/>
<path d="M202.509 17.3117C199.039 18.785 195.95 21.7317 194.239 25.2011C193.051 27.5775 192.956 28.2904 192.956 33.5183C192.956 38.6987 193.051 39.4592 194.191 41.883C195.76 45.2574 198.326 47.8239 201.701 49.3922C204.077 50.4853 204.932 50.6279 209.59 50.6279C214.39 50.6279 215.056 50.4853 217.86 49.2021C224.323 46.2555 227.603 38.271 225.987 29.5261C224.941 23.7278 222.185 19.9257 217.432 17.6444C215.246 16.5988 214.058 16.4087 210.065 16.2661C205.883 16.1711 204.98 16.3136 202.509 17.3117ZM216.481 29.4785C218.002 30.2865 218.382 30.8568 218.382 32.3777C218.382 34.2312 216.957 35.1817 213.202 35.7521C208.972 36.3699 202.604 35.7045 201.225 34.4213C199.229 32.6153 200.56 29.7637 203.744 28.9557C206.073 28.3854 215.103 28.7181 216.481 29.4785Z" fill="#204012"/>
<path d="M279.454 16.8369C271.327 19.4033 266.764 27.5779 268.237 36.8931C269.663 46.2084 276.65 51.2937 287.248 50.7709C293.997 50.4382 298.417 48.157 299.653 44.4499C300.793 41.0279 298.322 36.4654 295.042 35.8475C294.187 35.705 291.43 35.8951 288.912 36.3703C286.25 36.8456 283.684 37.0357 282.638 36.8456C280.642 36.4654 278.741 34.9445 278.741 33.6613C278.741 32.8534 279.311 32.8058 286.82 32.8058C295.565 32.8058 297.419 32.4256 298.892 30.382C299.32 29.7641 299.653 28.3383 299.653 27.1026C299.653 22.6351 296.088 18.4052 291.003 16.8844C288.056 16.0289 282.115 15.9814 279.454 16.8369ZM288.579 27.9106C289.719 28.671 290.29 29.8116 289.862 30.477C289.719 30.7147 287.153 30.9048 284.159 30.9048C278.266 30.9048 277.695 30.6196 279.881 28.576C281.878 26.6749 286.155 26.3897 288.579 27.9106Z" fill="#204012"/>
</svg>
