<svg width="25" height="25" viewBox="0 0 25 25" fill="none" xmlns="http://www.w3.org/2000/svg">
<path d="M20.2109 9.08936H11.2109C10.1064 9.08936 9.21094 9.98479 9.21094 11.0894V20.0894C9.21094 21.1939 10.1064 22.0894 11.2109 22.0894H20.2109C21.3155 22.0894 22.2109 21.1939 22.2109 20.0894V11.0894C22.2109 9.98479 21.3155 9.08936 20.2109 9.08936Z" stroke="#ADADAD" stroke-width="2" stroke-linecap="round" stroke-linejoin="round"/>
<path d="M5.21094 15.0894H4.21094C3.6805 15.0894 3.1718 14.8786 2.79672 14.5036C2.42165 14.1285 2.21094 13.6198 2.21094 13.0894V4.08936C2.21094 3.55892 2.42165 3.05021 2.79672 2.67514C3.1718 2.30007 3.6805 2.08936 4.21094 2.08936H13.2109C13.7414 2.08936 14.2501 2.30007 14.6252 2.67514C15.0002 3.05021 15.2109 3.55892 15.2109 4.08936V5.08936" stroke="#ADADAD" stroke-width="2" stroke-linecap="round" stroke-linejoin="round"/>
</svg>
