<svg width="14" height="14" viewBox="0 0 14 14" fill="none" xmlns="http://www.w3.org/2000/svg">
<path d="M0.636172 2.05025C0.245648 1.65972 0.245647 1.02656 0.636171 0.636034C1.0267 0.24551 1.65986 0.24551 2.05038 0.636034L13.3641 11.9497C13.7546 12.3403 13.7546 12.9734 13.3641 13.364C12.9736 13.7545 12.3404 13.7545 11.9499 13.364L0.636172 2.05025Z" fill="#204012"/>
<path d="M11.9499 0.636033C12.3404 0.245509 12.9736 0.245508 13.3641 0.636033C13.7546 1.02656 13.7546 1.65972 13.3641 2.05025L2.05037 13.364C1.65984 13.7545 1.02668 13.7545 0.636155 13.364C0.245631 12.9734 0.245631 12.3403 0.636155 11.9497L11.9499 0.636033Z" fill="#204012"/>
</svg>
