<svg width="35" height="35" viewBox="0 0 35 35" fill="none" xmlns="http://www.w3.org/2000/svg">
<path d="M23.3335 4.375H1.4585V23.3333H23.3335V4.375Z" stroke="#204012" stroke-width="2" stroke-linecap="round" stroke-linejoin="round"/>
<path d="M23.3335 11.667H29.1668L33.5418 16.042V23.3337H23.3335V11.667Z" stroke="#204012" stroke-width="2" stroke-linecap="round" stroke-linejoin="round"/>
<path d="M8.02083 30.6247C10.0344 30.6247 11.6667 28.9924 11.6667 26.9788C11.6667 24.9653 10.0344 23.333 8.02083 23.333C6.0073 23.333 4.375 24.9653 4.375 26.9788C4.375 28.9924 6.0073 30.6247 8.02083 30.6247Z" stroke="#204012" stroke-width="2" stroke-linecap="round" stroke-linejoin="round"/>
<path d="M26.9793 30.6247C28.9929 30.6247 30.6252 28.9924 30.6252 26.9788C30.6252 24.9653 28.9929 23.333 26.9793 23.333C24.9658 23.333 23.3335 24.9653 23.3335 26.9788C23.3335 28.9924 24.9658 30.6247 26.9793 30.6247Z" stroke="#204012" stroke-width="2" stroke-linecap="round" stroke-linejoin="round"/>
</svg>
