<svg width="30" height="30" viewBox="0 0 30 30" fill="none" xmlns="http://www.w3.org/2000/svg">
<path d="M26.0501 5.76283C25.4117 5.12408 24.6537 4.61739 23.8193 4.27168C22.985 3.92598 22.0908 3.74805 21.1876 3.74805C20.2845 3.74805 19.3903 3.92598 18.556 4.27168C17.7216 4.61739 16.9636 5.12408 16.3251 5.76283L15.0001 7.08783L13.6751 5.76283C12.3855 4.47321 10.6364 3.74872 8.81265 3.74872C6.98886 3.74872 5.23976 4.47321 3.95015 5.76283C2.66053 7.05244 1.93604 8.80154 1.93604 10.6253C1.93604 12.4491 2.66053 14.1982 3.95015 15.4878L5.27515 16.8128L15.0001 26.5378L24.7251 16.8128L26.0501 15.4878C26.6889 14.8494 27.1956 14.0913 27.5413 13.257C27.887 12.4227 28.0649 11.5284 28.0649 10.6253C28.0649 9.72222 27.887 8.82796 27.5413 7.99363C27.1956 7.15931 26.6889 6.40127 26.0501 5.76283Z" stroke="#204012" stroke-width="2" stroke-linecap="round" stroke-linejoin="round"/>
</svg>
