<svg width="30" height="30" viewBox="0 0 40 40" fill="none" xmlns="http://www.w3.org/2000/svg">
<path d="M5 10H8.33333H35" stroke="#F25252" stroke-width="3" stroke-linecap="round" stroke-linejoin="round"/>
<path d="M31.6663 10.0007V33.334C31.6663 34.218 31.3152 35.0659 30.69 35.691C30.0649 36.3161 29.2171 36.6673 28.333 36.6673H11.6663C10.7823 36.6673 9.93444 36.3161 9.30932 35.691C8.6842 35.0659 8.33301 34.218 8.33301 33.334V10.0007M13.333 10.0007V6.66732C13.333 5.78326 13.6842 4.93542 14.3093 4.31029C14.9344 3.68517 15.7823 3.33398 16.6663 3.33398H23.333C24.2171 3.33398 25.0649 3.68517 25.69 4.31029C26.3152 4.93542 26.6663 5.78326 26.6663 6.66732V10.0007" stroke="#F25252" stroke-width="3" stroke-linecap="round" stroke-linejoin="round"/>
</svg>
